<?xml version="1.0" encoding="UTF-8" standalone="no"?>
<svg
   xmlns:dc="http://purl.org/dc/elements/1.1/"
   xmlns:cc="http://creativecommons.org/ns#"
   xmlns:rdf="http://www.w3.org/1999/02/22-rdf-syntax-ns#"
   xmlns:svg="http://www.w3.org/2000/svg"
   xmlns="http://www.w3.org/2000/svg"
   xmlns:sodipodi="http://sodipodi.sourceforge.net/DTD/sodipodi-0.dtd"
   xmlns:inkscape="http://www.inkscape.org/namespaces/inkscape"
   inkscape:version="1.0 (4035a4fb49, 2020-05-01)"
   sodipodi:docname="transport_tram_stop1.svg"
   id="svg31"
   version="1.1"
   width="580"
   viewBox="0 0 580 580"
   height="580"
   enable-background="new 0 0 580 580">
  <metadata
     id="metadata37">
    <rdf:RDF>
      <cc:Work
         rdf:about="">
        <dc:format>image/svg+xml</dc:format>
        <dc:type
           rdf:resource="http://purl.org/dc/dcmitype/StillImage" />
        <dc:title></dc:title>
      </cc:Work>
    </rdf:RDF>
  </metadata>
  <defs
     id="defs35" />
  <sodipodi:namedview
     inkscape:current-layer="svg31"
     inkscape:window-maximized="1"
     inkscape:window-y="-9"
     inkscape:window-x="2391"
     inkscape:cy="290"
     inkscape:cx="290"
     inkscape:zoom="1.4310345"
     showgrid="false"
     id="namedview33"
     inkscape:window-height="1001"
     inkscape:window-width="1920"
     inkscape:pageshadow="2"
     inkscape:pageopacity="0"
     guidetolerance="10"
     gridtolerance="10"
     objecttolerance="10"
     borderopacity="1"
     bordercolor="#666666"
     pagecolor="#ffffff" />
  <path
     id="path23"
     stroke-width="param(outline-width)"
     stroke-opacity="param(outline-opacity)"
     stroke="param(outline)"
     fill-opacity="param(fill-opacity)"
     fill="param(fill)"
     d="m 493.27308,315.39027 -0.41013,97.21602 c 67.56798,-0.56983 67.37299,-97.35163 0.41013,-97.21602 z" />
  <path
     id="path25"
     stroke-width="param(outline-width)"
     stroke-opacity="param(outline-opacity)"
     stroke="param(outline)"
     fill-opacity="param(fill-opacity)"
     fill="param(fill)"
     d="m 492.84704,114.88472 -0.41013,97.21603 c 67.56799,-0.56884 67.37299,-97.35164 0.41013,-97.21603 z" />
  <path
     id="path27"
     stroke-width="param(outline-width)"
     stroke-opacity="param(outline-opacity)"
     stroke="param(outline)"
     fill-opacity="param(fill-opacity)"
     fill="param(fill)"
     d="m 492.94667,229.26375 0.13873,68.50586 c 15.81194,0.45298 23.15295,2.91712 30.39339,7.07747 l -0.16487,-81.41684 c -7.1686,4.15852 -14.77375,6.06493 -30.36725,5.83351 z" />
  <path
     id="path29"
     stroke-width="param(outline-width)"
     stroke-opacity="param(outline-opacity)"
     stroke="param(outline)"
     fill-opacity="param(fill-opacity)"
     fill="param(fill)"
     d="m 205.58707,135.93049 -10.25215,9.81377 0.15824,78.13685 -77.10295,-113.9691 -87.712021,130.94089 88.320521,133.49542 76.56229,-116.96429 0.16424,81.10484 10.28932,8.53918 0.19199,94.8058 29.14941,-0.31802 6.2e-4,0.309 131.3993,65.68604 79.61583,-0.16123 c 14.37898,-0.0291 29.29256,-17.03835 29.22634,-29.98325 l -0.83704,-413.34315 -105.75978,0.214175 -0.592,0.0015 -132.17673,0.267663 -1.412,0.0029 -29.37794,0.05948 z M 42.93528,240.88808 118.4332,128.18096 194.41981,240.50031 118.95312,355.78837 Z m 207.14322,47.30161 188.16679,-0.29304 c 9.83449,1.71508 11.67039,8.57638 16.95753,14.07468 l 0.0948,46.80591 c -5.40178,5.54895 -7.13659,12.55248 -17.07302,14.3266 l -188.16643,0.47005 c -4.23699,0.009 -8.42298,-5.90795 -13.24586,-12.7502 l -0.1004,-49.58289 c 4.8679,-6.96688 9.07761,-13.04242 13.3666,-13.05111 z m 74.46436,178.36858 -87.58301,-42.87773 -0.0815,-40.27792 132.31398,-0.13994 0.11389,56.24088 c 0.0263,12.94998 -15.49048,34.83544 -44.7633,27.05471 z M 249.33288,78.507771 351.72285,78.391429 c 9.69144,1.690375 11.63097,8.369469 16.74403,13.823126 l 0.3243,160.145665 c -5.34178,5.54483 -6.68928,12.70457 -16.58773,14.47262 l 0.0128,0.91898 -102.56823,-0.007 c -3.78799,0.008 -8.19063,-6.22842 -13.02851,-13.07964 L 236.28831,91.101213 c 4.73128,-6.773593 8.84953,-12.584943 13.04452,-12.593441 z" />
</svg>
